<svg width="80" height="99" viewBox="0 0 80 99" fill="none" xmlns="http://www.w3.org/2000/svg">
<path fill-rule="evenodd" clip-rule="evenodd" d="M39.663 0.459914C40.0625 -0.0134931 40.7919 -0.0134936 41.1914 0.459913L64.8719 28.5202C65.8724 29.7057 65.2009 31.5295 63.6705 31.7831L55.5907 33.1223L72.5354 50.7329C73.6643 51.9062 72.9931 53.8646 71.3819 54.0988L63.0838 55.3051L79.0425 72.0385C80.1625 73.2129 79.4911 75.1621 77.8854 75.3976L63.2427 77.5452C60.8402 77.8976 58.4152 78.0745 55.987 78.0745H40.0225H22.1154C19.3987 78.0745 16.6866 77.8531 14.0059 77.4125L2.06981 75.4506C0.483905 75.1899 -0.162345 73.2598 0.946865 72.0968L16.894 55.3755L9.3826 54.1518C7.79109 53.8925 7.14497 51.9531 8.263 50.7911L25.0752 33.3183L17.0953 31.8361C15.5871 31.5559 14.9428 29.7522 15.9321 28.5798L39.663 0.459914Z" fill="#60AC9F"/>
<rect x="35.5703" y="64.3132" width="9.71383" height="33.9984" fill="#60AC9F"/>
</svg>
