<svg width="81" height="96" viewBox="0 0 81 96" fill="none" xmlns="http://www.w3.org/2000/svg">
<path fill-rule="evenodd" clip-rule="evenodd" d="M40.3198 0.77461C39.9304 0.390072 39.3041 0.390071 38.9146 0.77461L15.4062 23.9855C13.2648 26.0998 15.2224 29.6987 18.1609 29.0497L25.1573 27.5045L9.80477 43.0258C7.75067 45.1025 9.57394 48.5916 12.4517 48.0911L21.6105 46.4983L22.3979 46.2782L5.05746 63.787C2.99731 65.8671 4.83164 69.3642 7.71411 68.8517L16.4086 67.3061L20.2085 66.3061L1.14107 86.5947C-0.768338 88.6264 1.00197 91.9202 3.74994 91.4487C7.21024 90.8549 10.5957 89.8867 13.8467 88.561L19.5669 86.2284L28.606 81.1146L28.8698 80.9318C34.8362 76.7974 42.7602 76.8706 48.6492 81.1146L52.3894 83.548C55.1294 85.3306 58.0376 86.8403 61.0722 88.0552L62.4043 88.5886L69.4784 90.5554L74.2747 91.3784C77.1251 91.8675 78.949 88.4374 76.9497 86.3477L57.5699 66.0916L62.0256 67.3061L71.6259 68.9401C74.5009 69.4295 76.3131 65.9438 74.2608 63.8716L56.8861 46.3282C57.136 46.3868 57.3822 46.4436 57.624 46.4983C60.4908 47.1465 64.0349 47.7919 67.2453 48.3316C70.0776 48.8078 71.7973 45.4194 69.7776 43.3775L54.0772 27.5046L61.0736 29.0497C64.012 29.6987 65.9697 26.0998 63.8283 23.9855L40.3198 0.77461Z" fill="#60AC9F"/>
<rect x="33.615" y="61.704" width="12.0045" height="33.6126" fill="#60AC9F"/>
</svg>
