<svg width="81" height="89" viewBox="0 0 81 89" fill="none" xmlns="http://www.w3.org/2000/svg">
<path fill-rule="evenodd" clip-rule="evenodd" d="M39.0251 0.846455C39.939 -0.348754 41.7674 -0.256165 42.556 1.02526L48.2714 10.3127C49.8326 12.8497 52.3789 14.6228 55.3 15.207L58.1204 15.7711C59.8737 16.1218 61.6861 15.573 62.9504 14.3087C62.9622 14.2969 62.975 14.286 62.9885 14.2761L64.3721 13.2699C65.4972 12.4516 67.0471 13.4155 66.8107 14.7865L65.9343 19.8698C65.5983 21.8187 64.6671 23.6158 63.2687 25.0142C61.7515 26.5314 59.7687 27.4952 57.6382 27.7508L53.3892 28.2607C53.2796 28.2738 53.17 28.2862 53.0602 28.2976L54.091 29.9778C54.2822 30.2896 54.5651 30.5348 54.901 30.6798L58.3847 32.184C59.7923 32.7918 61.3093 33.1053 62.8426 33.1053C65.0546 33.1053 67.2176 32.4529 69.0607 31.2298L70.0253 30.5897C70.1563 30.5027 70.2625 30.3831 70.3332 30.2426L70.5055 29.9003C71.1534 28.6136 73.0483 28.8097 73.4189 30.2019L74.3671 33.7641C74.3891 33.8469 74.4003 33.9322 74.4003 34.0178V36.9011C74.4003 40.8607 72.3313 44.5324 68.9444 46.5834C68.0427 47.1294 67.0691 47.5468 66.052 47.8235L62.0588 48.9097C61.8494 48.9666 61.6334 48.9955 61.4163 48.9955H55.3051L55.9396 50.0047C56.1902 50.4032 56.5596 50.713 56.9957 50.8904L61.3701 52.6699C62.9648 53.3186 64.67 53.6521 66.3915 53.6521H67.4893C70.2703 53.6521 72.9408 52.5628 74.9283 50.6176C76.2674 49.0585 78.8048 49.6304 79.3455 51.6132L80.4571 55.6887C80.5016 55.852 80.5116 56.0228 80.4865 56.1901L80.214 58.0066C79.6265 61.9238 77.5751 65.4724 74.4738 67.9364C72.7299 69.3221 70.7102 70.3194 68.5498 70.8617L63.0764 72.2357C59.7506 73.0706 56.3346 73.4928 52.9056 73.4928H40.104L22.8392 72.6762L11.9321 70.6347L9.94681 70.0078C6.27437 68.8481 3.27098 66.177 1.69058 62.665C0.905798 60.921 0.5 59.0304 0.5 57.118V51.1129C0.5 49.2312 2.50713 48.0296 4.16571 48.9184L7.33653 50.6176L8.24827 51.1753C10.8681 52.7778 13.9585 53.433 17.0033 53.0315C20.4181 52.5811 23.5166 50.8368 25.6709 48.1789H17.8397C17.7128 48.1789 17.5867 48.1584 17.4663 48.1183L15.3631 47.4172C12.8653 46.5846 10.6876 44.9971 9.13054 42.8739C7.75814 41.0025 6.9241 38.7911 6.71883 36.4794L6.17552 30.3611C6.0238 28.6525 7.88612 27.5026 9.34574 28.4037L12.6719 30.457L13.1018 30.7265C15.5418 32.2563 18.4675 32.8136 21.2991 32.288C24.0211 31.7827 26.4616 30.3129 28.1797 28.1601C27.0591 28.0344 25.948 27.8183 24.8575 27.513L21.4788 26.567C19.5172 26.0177 17.7726 24.8771 16.4827 23.3006C15.3741 21.9456 14.6444 20.3212 14.3678 18.5925L13.69 14.3563C13.4808 13.0488 14.9028 12.099 16.0305 12.793L18.4647 14.2909C20.5568 15.5985 23.0812 16.0255 25.487 15.4788L26.0189 15.3579C29.0036 14.6795 31.553 12.7516 33.0187 10.0646L34.8996 6.61618C35.3744 5.74574 35.9153 4.91304 36.5176 4.12543L39.0251 0.846455Z" fill="#60AC9F"/>
<rect x="35.2045" y="54.7115" width="8.98235" height="34.2963" fill="#60AC9F"/>
</svg>
