<svg width="80" height="113" viewBox="0 0 80 113" fill="none" xmlns="http://www.w3.org/2000/svg">
<rect x="36.5356" y="87.6129" width="10.3857" height="25.0988" fill="#60AC9F"/>
<path fill-rule="evenodd" clip-rule="evenodd" d="M40.8224 0.53821C40.4252 -0.0414653 39.5698 -0.0414631 39.1726 0.538212L0.59569 56.8378C0.140968 57.5014 0.61614 58.4031 1.42061 58.4031H17.3554L0.195831 90.0506C-0.13274 90.6566 0.23594 91.4055 0.916575 91.5146L17.0624 94.104L28.7463 94.9695L36.0029 95.5276C38.6617 95.7322 41.3326 95.7237 43.99 95.5022L50.3832 94.9695L63.7981 94.104L79.0922 91.5239C79.7685 91.4098 80.1319 90.6642 79.8049 90.0612L62.6397 58.4031H78.5744C79.3789 58.4031 79.854 57.5014 79.3993 56.8378L40.8224 0.53821Z" fill="#60AC9F"/>
</svg>
