<svg width="81" height="100" viewBox="0 0 81 100" fill="none" xmlns="http://www.w3.org/2000/svg">
<path fill-rule="evenodd" clip-rule="evenodd" d="M40.4475 1.02804C40.8476 0.5394 41.5949 0.539399 41.995 1.02804L67.4687 32.1395C68.5378 33.4452 67.6088 35.4065 65.9212 35.4065H61.4065C60.5533 35.4065 60.092 36.4064 60.6458 37.0555L74.6887 53.5167C75.7963 54.8149 74.8737 56.8147 73.1672 56.8147H68.6125C67.7575 56.8147 67.2968 57.8182 67.8542 58.4666L79.6957 72.2413C81.2226 74.0175 80.2159 76.7803 77.9041 77.1577L66.2032 79.0681C63.5398 79.5029 60.8454 79.7214 58.1467 79.7214H41.2213H23.4399C20.7412 79.7214 18.0468 79.5029 15.3833 79.0681L3.74484 77.1679C1.41982 76.7883 0.419448 73.9998 1.97295 72.2288L14.0384 58.4741C14.6053 57.8278 14.1464 56.8147 13.2866 56.8147H8.41897C6.71246 56.8147 5.78987 54.8149 6.89743 53.5167L20.9404 37.0555C21.4942 36.4064 21.0329 35.4065 20.1796 35.4065H16.5213C14.8337 35.4065 13.9047 33.4452 14.9739 32.1395L40.4475 1.02804Z" fill="#60AC9F"/>
<rect x="35.9888" y="63.4511" width="10.2759" height="35.9657" fill="#60AC9F"/>
</svg>
