<svg width="152" height="113" viewBox="0 0 152 113" fill="none" xmlns="http://www.w3.org/2000/svg">
<path d="M49.134 14.5C49.5189 13.8333 50.4811 13.8333 50.866 14.5L92.4352 86.5C92.8201 87.1667 92.339 88 91.5692 88H8.43078C7.66098 88 7.17986 87.1667 7.56476 86.5L49.134 14.5Z" fill="#D14836"/>
<path d="M66.2372 64.5759C65.8295 64.5503 65.4783 64.2793 65.3502 63.8913L49.3784 15.5109C49.0693 14.5746 50.1584 13.8034 50.9389 14.4058L117.76 65.9742C118.54 66.5765 118.07 67.8256 117.086 67.7639L66.2372 64.5759Z" fill="#D14836"/>
<rect y="87" width="105" height="20" rx="8" fill="white"/>
<circle cx="133.5" cy="74.5" r="18.5" fill="white"/>
</svg>
