<svg width="148" height="103" viewBox="0 0 148 103" fill="none" xmlns="http://www.w3.org/2000/svg">
<path d="M0 10.8906C0 7.22259 3.81827 4.80307 7.13503 6.36932L69.135 35.6471C70.8842 36.4731 72 38.2339 72 40.1683V62.4666C72 64.3308 70.963 66.0401 69.3097 66.9012L7.30967 99.1929C3.98099 100.927 0 98.5114 0 94.7583V10.8906Z" fill="black"/>
<path d="M148 92.1094C148 95.7774 144.182 98.1969 140.865 96.6307L78.865 67.3529C77.1158 66.5269 76 64.766 76 62.8317L76 40.5334C76 38.6692 77.037 36.9599 78.6903 36.0988L140.69 3.80712C144.019 2.07343 148 4.48859 148 8.24169L148 92.1094Z" fill="black"/>
</svg>
