<svg width="104" height="107" viewBox="0 0 104 107" fill="none" xmlns="http://www.w3.org/2000/svg">
<path d="M39.4201 10.7202C38.9522 8.82865 40.3837 7 42.3323 7H93.666C95.4477 7 96.8367 8.54373 96.6493 10.3155L91.5348 58.6713C91.5117 58.8898 91.5126 59.1101 91.5376 59.3284L95.7237 95.8616C96.4038 101.797 91.7626 107 85.7887 107H14.73C7.66622 107 2.82909 99.8749 5.43587 93.3097L6.74203 90.0201C11.1056 79.0303 19.2228 69.9426 29.6521 64.3708L47.9409 54.6001C49.1519 53.9531 49.7692 52.5666 49.4395 51.2338L39.4201 10.7202Z" fill="#D14836"/>
<rect x="34" width="70" height="20" rx="8" fill="white"/>
</svg>
