<svg width="77" height="114" viewBox="0 0 77 114" fill="none" xmlns="http://www.w3.org/2000/svg">
<path fill-rule="evenodd" clip-rule="evenodd" d="M60.8682 44.1608C64.1005 39.5953 66 34.0195 66 28C66 12.536 53.464 0 38 0C22.536 0 10 12.536 10 28C10 34.2313 12.0355 39.9871 15.4778 44.6389C6.08234 51.6592 0 62.8693 0 75.5C0 96.763 17.237 114 38.5 114C59.763 114 77 96.763 77 75.5C77 62.5786 70.6345 51.1439 60.8682 44.1608Z" fill="white"/>
<path fill-rule="evenodd" clip-rule="evenodd" d="M27 31C28.6569 31 30 28.7614 30 26C30 25.4616 29.9489 24.943 29.8544 24.4571C29.7888 24.1193 29.3441 24 29 24C28.4477 24 28 23.5523 28 23C28 22.3705 28.327 21.4045 27.7483 21.1568C27.5091 21.0544 27.2584 21 27 21C25.3431 21 24 23.2386 24 26C24 28.7614 25.3431 31 27 31Z" fill="black"/>
<path fill-rule="evenodd" clip-rule="evenodd" d="M46 31C47.6569 31 49 28.7614 49 26C49 25.4616 48.9489 24.943 48.8544 24.4571C48.7888 24.1193 48.3441 24 48 24C47.4477 24 47 23.5523 47 23C47 22.3705 47.327 21.4045 46.7483 21.1568C46.5091 21.0544 46.2584 21 46 21C44.3431 21 43 23.2386 43 26C43 28.7614 44.3431 31 46 31Z" fill="black"/>
</svg>
