<svg width="116" height="133" viewBox="0 0 116 133" fill="none" xmlns="http://www.w3.org/2000/svg">
<path d="M4.20805 51.3275C2.69244 49.3543 4.09916 46.5 6.58721 46.5H39.9236C41.1729 46.5 42.2913 45.7259 42.7314 44.5567L56.6094 7.6808C57.5944 5.06336 61.3092 5.09858 62.2444 7.73424L75.2915 44.5032C75.7162 45.7002 76.8487 46.5 78.1188 46.5H110.121C112.571 46.5 113.988 49.2769 112.55 51.2603L91.762 79.9484C91.2758 80.6194 91.0888 81.4616 91.2452 82.2753L99.5208 125.308C100.04 128.01 96.9525 129.928 94.761 128.264L61.282 102.853C60.2248 102.05 58.766 102.038 57.6953 102.822L22.746 128.424C20.5357 130.044 17.4902 128.096 18.0325 125.411L26.7297 82.3384C26.9014 81.4881 26.6967 80.6051 26.1682 79.9172L4.20805 51.3275Z" fill="#ECD06F"/>
</svg>
