<svg width="60" height="60" viewBox="0 0 60 60" fill="none" xmlns="http://www.w3.org/2000/svg">
<path d="M16.499 28.4935C16.499 21.678 16.499 18.2702 18.6078 16.1529C20.7167 14.0356 24.1108 14.0356 30.899 14.0356H38.099C44.8873 14.0356 48.2813 14.0356 50.3903 16.1529C52.499 18.2702 52.499 21.678 52.499 28.4935V40.5417C52.499 47.3572 52.499 50.765 50.3903 52.8822C48.2813 54.9995 44.8873 54.9995 38.099 54.9995H30.899C24.1108 54.9995 20.7167 54.9995 18.6078 52.8822C16.499 50.765 16.499 47.3572 16.499 40.5417V28.4935Z" fill="#1C274C"/>
<path opacity="0.5" d="M10.4289 7.92893C7.5 10.8579 7.5 15.5719 7.5 25V30C7.5 39.428 7.5 44.1422 10.4289 47.071C11.9728 48.615 14.0127 49.345 16.9776 49.6903C16.499 47.5883 16.499 44.699 16.499 40.5417V28.4935C16.499 21.678 16.499 18.2703 18.6079 16.153C20.7167 14.0357 24.1108 14.0357 30.899 14.0357H38.099C42.2288 14.0357 45.1023 14.0357 47.1943 14.5124C46.8508 11.5287 46.121 9.47885 44.571 7.92893C41.6422 5 36.928 5 27.5 5C18.0719 5 13.3579 5 10.4289 7.92893Z" fill="#1C274C"/>
</svg>
