<svg width="60" height="60" viewBox="0 0 60 60" fill="none" xmlns="http://www.w3.org/2000/svg">
<g clip-path="url(#clip0_54_1976)">
<path fill-rule="evenodd" clip-rule="evenodd" d="M35.698 5C37.8502 5 39.761 6.37715 40.4415 8.41885L41.802 12.5H50C51.3807 12.5 52.5 13.6193 52.5 15C52.5 16.3807 51.3807 17.5 50 17.5L49.9937 17.6781L47.8253 48.0342C47.545 51.9592 44.2793 55 40.3445 55H19.6556C15.7208 55 12.455 51.9592 12.1747 48.0342L10.0064 17.6781C10.0021 17.6184 9.99995 17.559 9.9999 17.5C8.61922 17.5 7.5 16.3807 7.5 15C7.5 13.6193 8.6193 12.5 10 12.5H18.1981L19.5585 8.41885C20.2391 6.37715 22.1498 5 24.3019 5H35.698ZM22.5 25C21.2179 25 20.1612 25.9651 20.0168 27.2084L20 27.5V42.5C20 43.8807 21.1193 45 22.5 45C23.7821 45 24.8388 44.0349 24.9832 42.7916L25 42.5V27.5C25 26.1193 23.8807 25 22.5 25ZM37.5 25C36.1193 25 35 26.1193 35 27.5V42.5C35 43.8807 36.1193 45 37.5 45C38.8807 45 40 43.8807 40 42.5V27.5C40 26.1193 38.8807 25 37.5 25ZM35.698 10H24.3019L23.4686 12.5H36.5315L35.698 10Z" fill="#1C274C"/>
</g>
<defs>
<clipPath id="clip0_54_1976">
<rect width="60" height="60" fill="white"/>
</clipPath>
</defs>
</svg>
