<svg width="60" height="60" viewBox="0 0 60 60" fill="none" xmlns="http://www.w3.org/2000/svg">
<path d="M6.47498 32.325L32.325 6.47498C32.7893 6.0101 33.3408 5.6413 33.9478 5.38968C34.5548 5.13806 35.2054 5.00854 35.8625 5.00854C36.5196 5.00854 37.1702 5.13806 37.7772 5.38968C38.3842 5.6413 38.9356 6.0101 39.4 6.47498L53.525 20.6C53.9899 21.0643 54.3587 21.6158 54.6103 22.2228C54.8619 22.8298 54.9914 23.4804 54.9914 24.1375C54.9914 24.7946 54.8619 25.4452 54.6103 26.0522C54.3587 26.6592 53.9899 27.2106 53.525 27.675L27.675 53.525C27.2106 53.9899 26.6592 54.3587 26.0522 54.6103C25.4452 54.8619 24.7946 54.9914 24.1375 54.9914C23.4804 54.9914 22.8298 54.8619 22.2228 54.6103C21.6158 54.3587 21.0643 53.9899 20.6 53.525L6.47498 39.4C6.0101 38.9356 5.6413 38.3842 5.38968 37.7772C5.13806 37.1702 5.00854 36.5196 5.00854 35.8625C5.00854 35.2054 5.13806 34.5548 5.38968 33.9478C5.6413 33.3408 6.0101 32.7893 6.47498 32.325Z" fill="#1C274C"/>
<path d="M6.47498 32.325L14.575 24.225L35.775 45.425L31.2 50H45C45.663 50 46.2989 50.2634 46.7677 50.7322C47.2366 51.201 47.5 51.8369 47.5 52.5C47.5 53.163 47.2366 53.7989 46.7677 54.2677C46.2989 54.7366 45.663 55 45 55H24.125C22.801 54.9944 21.5334 54.4639 20.6 53.525L6.47498 39.4C6.0101 38.9356 5.6413 38.3842 5.38968 37.7772C5.13806 37.1702 5.00854 36.5196 5.00854 35.8625C5.00854 35.2054 5.13806 34.5548 5.38968 33.9478C5.6413 33.3408 6.0101 32.7893 6.47498 32.325Z" fill="#7B8092"/>
</svg>
