<svg width="60" height="60" viewBox="0 0 60 60" fill="none" xmlns="http://www.w3.org/2000/svg">
<path d="M30 47.5C29.337 47.5 28.7011 47.2366 28.2322 46.7678C27.7634 46.2989 27.5 45.663 27.5 45V15C27.5 14.337 27.7634 13.7011 28.2322 13.2322C28.7011 12.7634 29.337 12.5 30 12.5C30.663 12.5 31.2989 12.7634 31.7678 13.2322C32.2366 13.7011 32.5 14.337 32.5 15V45C32.5 45.663 32.2366 46.2989 31.7678 46.7678C31.2989 47.2366 30.663 47.5 30 47.5Z" fill="#1C274C"/>
<path d="M54.2751 31.775L49.2751 36.775C49.0427 37.0093 48.7662 37.1953 48.4615 37.3222C48.1569 37.4491 47.8301 37.5145 47.5001 37.5145C47.1701 37.5145 46.8433 37.4491 46.5386 37.3222C46.234 37.1953 45.9575 37.0093 45.7251 36.775C45.4908 36.5426 45.3048 36.2661 45.1779 35.9614C45.0509 35.6568 44.9856 35.33 44.9856 35C44.9856 34.6699 45.0509 34.3432 45.1779 34.0385C45.3048 33.7339 45.4908 33.4574 45.7251 33.225L46.4751 32.5H40.0001C39.3371 32.5 38.7012 32.2366 38.2323 31.7677C37.7635 31.2989 37.5001 30.663 37.5001 30C37.5001 29.3369 37.7635 28.701 38.2323 28.2322C38.7012 27.7634 39.3371 27.5 40.0001 27.5H46.4751L45.7251 26.775C45.2543 26.3042 44.9899 25.6657 44.9899 25C44.9899 24.3342 45.2543 23.6957 45.7251 23.225C46.1959 22.7542 46.8343 22.4897 47.5001 22.4897C48.1658 22.4897 48.8043 22.7542 49.2751 23.225L54.2751 28.225C54.5094 28.4574 54.6954 28.7339 54.8223 29.0385C54.9492 29.3432 55.0146 29.6699 55.0146 30C55.0146 30.33 54.9492 30.6568 54.8223 30.9614C54.6954 31.2661 54.5094 31.5426 54.2751 31.775ZM20.0001 27.5H13.5251L14.2751 26.775C14.7459 26.3042 15.0103 25.6657 15.0103 25C15.0103 24.3342 14.7459 23.6957 14.2751 23.225C13.8043 22.7542 13.1658 22.4897 12.5001 22.4897C11.8343 22.4897 11.1959 22.7542 10.7251 23.225L5.72509 28.225C5.49077 28.4574 5.30478 28.7339 5.17786 29.0385C5.05094 29.3432 4.9856 29.6699 4.9856 30C4.9856 30.33 5.05094 30.6568 5.17786 30.9614C5.30478 31.2661 5.49077 31.5426 5.72509 31.775L10.7251 36.775C10.9575 37.0093 11.234 37.1953 11.5386 37.3222C11.8433 37.4491 12.1701 37.5145 12.5001 37.5145C12.8301 37.5145 13.1569 37.4491 13.4615 37.3222C13.7662 37.1953 14.0427 37.0093 14.2751 36.775C14.5094 36.5426 14.6954 36.2661 14.8223 35.9614C14.9492 35.6568 15.0146 35.33 15.0146 35C15.0146 34.6699 14.9492 34.3432 14.8223 34.0385C14.6954 33.7339 14.5094 33.4574 14.2751 33.225L13.5251 32.5H20.0001C20.6631 32.5 21.299 32.2366 21.7679 31.7677C22.2367 31.2989 22.5001 30.663 22.5001 30C22.5001 29.3369 22.2367 28.701 21.7679 28.2322C21.299 27.7634 20.6631 27.5 20.0001 27.5Z" fill="#1C274C"/>
</svg>
