<svg width="60" height="60" viewBox="0 0 60 60" fill="none" xmlns="http://www.w3.org/2000/svg">
<path d="M46.5 28L16.5 5.5C16.1286 5.22143 15.6869 5.0518 15.2245 5.0101C14.7621 4.96841 14.2972 5.0563 13.882 5.26393C13.4667 5.47157 13.1175 5.79073 12.8734 6.18567C12.6293 6.58061 12.5 7.03572 12.5 7.5V52.5C12.5014 52.9617 12.6306 53.4139 12.8733 53.8067C13.116 54.1994 13.4627 54.5172 13.875 54.725C14.2745 54.9112 14.7162 54.9885 15.1553 54.949C15.5943 54.9095 16.0151 54.7546 16.375 54.5L46.375 32C46.6855 31.7671 46.9375 31.4652 47.1111 31.118C47.2846 30.7709 47.375 30.3881 47.375 30C47.375 29.6119 47.2846 29.2291 47.1111 28.882C46.9375 28.5348 46.6855 28.2329 46.375 28H46.5Z" fill="#1C274C"/>
</svg>
