<svg width="60" height="60" viewBox="0 0 60 60" fill="none" xmlns="http://www.w3.org/2000/svg">
<path fill-rule="evenodd" clip-rule="evenodd" d="M51.934 20.2498C55.9585 16.2095 55.7875 10.9038 52.7825 7.65457C51.317 6.07024 49.2315 5.05824 46.8692 5.00244C44.4982 4.94644 42.0417 5.85317 39.775 7.74962C39.717 7.79812 39.6612 7.84922 39.608 7.90277L7.18615 40.454C5.78607 41.8595 5 43.7627 5 45.7467V49.9805C5 52.7342 7.22992 55 10.0096 55H14.2066C16.2009 55 18.1131 54.2057 19.5205 52.7927L51.934 20.2498ZM43.0177 14.4824C42.0415 13.5061 40.4585 13.5061 39.4823 14.4824C38.506 15.4587 38.506 17.0416 39.4823 18.0179L41.9823 20.5179C42.9585 21.4942 44.5415 21.4942 45.5177 20.5179C46.494 19.5416 46.494 17.9587 45.5177 16.9824L43.0177 14.4824Z" fill="#1C274C"/>
</svg>
