<svg width="60" height="60" viewBox="0 0 60 60" fill="none" xmlns="http://www.w3.org/2000/svg">
<path d="M43.625 5.275C43.2099 5.06441 42.7442 4.9739 42.2805 5.01365C41.8167 5.0534 41.3732 5.22184 41 5.5L11 28C10.6895 28.2329 10.4375 28.5348 10.2639 28.882C10.0904 29.2291 10 29.6119 10 30C10 30.3881 10.0904 30.7709 10.2639 31.118C10.4375 31.4652 10.6895 31.7671 11 32L41 54.5C41.3732 54.7782 41.8167 54.9466 42.2805 54.9863C42.7442 55.0261 43.2099 54.9356 43.625 54.725C44.0373 54.5172 44.384 54.1994 44.6267 53.8067C44.8694 53.4139 44.9986 52.9617 45 52.5V7.5C44.9986 7.03833 44.8694 6.58607 44.6267 6.19334C44.384 5.80061 44.0373 5.48275 43.625 5.275Z" fill="#1C274C"/>
</svg>
